<svg xmlns="http://www.w3.org/2000/svg" viewBox="0 0 1200 700" role="img" aria-label="Cadena de suministro agricola">
  <defs>
    <linearGradient id="g1" x1="0" y1="0" x2="1" y2="1">
      <stop offset="0%" stop-color="#efe7d8" />
      <stop offset="50%" stop-color="#ffffff" />
      <stop offset="100%" stop-color="#e9f2ee" />
    </linearGradient>
    <linearGradient id="g2" x1="0" y1="1" x2="1" y2="0">
      <stop offset="0%" stop-color="#0f3f38" stop-opacity="0.18" />
      <stop offset="100%" stop-color="#1f7a68" stop-opacity="0.08" />
    </linearGradient>
  </defs>
  <rect width="1200" height="700" rx="48" fill="url(#g1)" />
  <circle cx="220" cy="160" r="140" fill="#f7f4ee" />
  <circle cx="980" cy="140" r="120" fill="#ffffff" />
  <rect x="120" y="260" width="420" height="260" rx="32" fill="#ffffff" />
  <rect x="620" y="220" width="460" height="320" rx="36" fill="#f7f4ee" />
  <rect x="160" y="300" width="180" height="24" rx="12" fill="#d9e6df" />
  <rect x="160" y="336" width="260" height="24" rx="12" fill="#e6efe9" />
  <rect x="160" y="372" width="220" height="24" rx="12" fill="#dfeae4" />
  <rect x="660" y="270" width="300" height="28" rx="14" fill="#dfeae4" />
  <rect x="660" y="312" width="220" height="28" rx="14" fill="#e6efe9" />
  <rect x="660" y="354" width="260" height="28" rx="14" fill="#d9e6df" />
  <rect x="660" y="396" width="200" height="28" rx="14" fill="#e6efe9" />
  <path d="M0 520 C220 460 380 640 600 580 C820 520 980 620 1200 540 L1200 700 L0 700 Z" fill="url(#g2)" />
</svg>
